# xmcd
#
# Track frame offsets:
#	150
#	18972
#	36785
#	55922
#	76922
#	91637
#	103254
#	113152
#	133397
#	147450
#	163587
#	177900
#	196800
#
# Disc length: 2886 seconds
# Revision: 0
# Processed by: cddbd v1.5.2PL0 Copyright (c) Steve Scherf et al.
# Submitted via: dBpowerAMP V12.0
#
DISCID=aa0b440d
DTITLE=Puffy AmiYumi - SPIKE
DYEAR=2000
DGENRE=JPop
TTITLE0=Boogie Woogie No.5
TTITLE1=Violet
TTITLE2=Shut Your Mouth, Honey
TTITLE3=Cosmic Wonder
TTITLE4=DestructionPancake
TTITLE5=Su-I-Su-I
TTITLE6=Sui Sui
TTITLE7=Swimming Pool
TTITLE8=Green Apple
TTITLE9=This Is the Song of Sweet Sweet Season When Cherry Garcia Blossoms Bloom
TTITLE10=Into the Beach
TTITLE11=Puffy's Rule
TTITLE12=December
EXTD=
EXTT0=
EXTT1=
EXTT2=
EXTT3=
EXTT4=
EXTT5=
EXTT6=
EXTT7=
EXTT8=
EXTT9=
EXTT10=
EXTT11=
EXTT12=
PLAYORDER=
